<svg width="26" height="22" viewBox="0 0 26 22" fill="none" xmlns="http://www.w3.org/2000/svg">
<path d="M6.32422 12.1892L9.17168 20.0705C9.17168 20.0705 9.52762 20.8076 9.90897 20.8076C10.2903 20.8076 15.9598 14.9093 15.9598 14.9093L22.2649 2.73132L6.42591 10.1551L6.32422 12.1892Z" fill="#C8DAEA"/>
<path d="M10.0997 14.2104L9.55303 20.0197C9.55303 20.0197 9.32422 21.7993 11.1039 20.0197C12.8835 18.24 14.5869 16.8671 14.5869 16.8671" fill="#A9C6D8"/>
<path d="M6.37559 12.4707L0.518969 10.5623C0.518969 10.5623 -0.180084 10.2786 0.0444586 9.63444C0.0908316 9.50162 0.184188 9.38874 0.463849 9.19369C1.76189 8.28921 24.4851 0.121672 24.4851 0.121672C24.4851 0.121672 25.1267 -0.0943284 25.5061 0.0492651C25.6794 0.11496 25.79 0.189196 25.8832 0.460112C25.9171 0.558756 25.9366 0.768453 25.934 0.977131C25.932 1.12764 25.9137 1.26696 25.9002 1.48561C25.7619 3.71883 21.6209 20.3842 21.6209 20.3842C21.6209 20.3842 21.3732 21.3595 20.4854 21.3926C20.1616 21.4048 19.7686 21.3391 19.2988 20.935C17.5568 19.4364 11.535 15.3896 10.2046 14.4997C10.1294 14.4497 10.1082 14.3844 10.0954 14.3208C10.0767 14.2272 10.1768 14.1104 10.1768 14.1104C10.1768 14.1104 20.6619 4.79009 20.941 3.81219C20.9625 3.73632 20.8814 3.6989 20.7714 3.73165C20.0749 3.98792 8.00251 11.611 6.6703 12.453C6.5924 12.5022 6.37396 12.4705 6.37396 12.4705" fill="white"/>
</svg>
